# xmcd CD database file
# Copyright (C) 1993-1998 Ti Kan
#
# Track frame offsets:
#	150
#	17715
#	33197
#	51502
#	71002
#	89979
#	101487
#	118312
#	135400
#	153020
#	169745
#	180697
#
# Disc length: 2690 seconds
#
# Revision: 2
# Processed by: cddbd v1.4PL0 Copyright (c) Steve Scherf et al.
# Submitted via: Gronk 1.4
#
DISCID=a20a800c
DTITLE=John Fogerty - Blue Moon Swamp
DYEAR=1900
DGENRE=country
TTITLE0=Southern Streamline
TTITLE1=Hot Rod Heart
TTITLE2=Blueboy
TTITLE3=A Hundred And Ten In The Shade
TTITLE4=Rattlesnake Highway
TTITLE5=Bring It Down To Jelly Roll
TTITLE6=Walking In A Hurricane
TTITLE7=Swamp River Days
TTITLE8=Rambunctious Boy
TTITLE9=Joy Of My LIfe
TTITLE10=Blue Moon Nights
TTITLE11=Bad Bad Boy
EXTD=
EXTT0=
EXTT1=
EXTT2=
EXTT3=
EXTT4=
EXTT5=
EXTT6=
EXTT7=
EXTT8=
EXTT9=
EXTT10=
EXTT11=
PLAYORDER=
